# xmcd
#
# Track frame offsets: 
#        150
#        13132
#        26542
#        40224
#        53240
#        65206
#        78005
#        91653
#        103685
#        116750
#        130292
#        141746
#        153855
#        165205
#        177124
#        190107
#        201889
#        213185
#        225035
#        235935
#        247788
#        257875
#        268384
#        279459
#        291296
#        301831
#        314497
#        324905
#        335933
#
# Disc length: 4616 seconds
#
# Revision: 2
# Processed by: cddbd v1.5.2PL0 Copyright (c) Steve Scherf et al.
# Submitted via: ExactAudioCopyFreeDBPlugin 1.0
#
DISCID=9a12061d
DTITLE=Robert Johnson - Crossroads blues CD1 (Compilation Blues Charac
DTITLE=ters)
DYEAR=1900
DGENRE=Blues
TTITLE0=Kind Hearted Woman Blues
TTITLE1=I'll Believe I'll Dust My Broom
TTITLE2=Sweet Home Chicago
TTITLE3=Ramblin' on My Mind
TTITLE4=When You Got a Good Friend
TTITLE5=Come on in My Kitchen
TTITLE6=Terraplane Blues
TTITLE7=Phonograph Blues
TTITLE8=32-20 Blues
TTITLE9=They're Red Hot
TTITLE10=Dead Shrimp Blues
TTITLE11=Crossroad Blues
TTITLE12=Walkin' Blues
TTITLE13=Last Fair Deal Gone Down
TTITLE14=Preachin' Blues (Up Jump the Devil)
TTITLE15=If I Had Possession Over Judgement Day
TTITLE16=Stones in My Passway
TTITLE17=I'm a Steady Rollin' Man
TTITLE18=From Four Until Late
TTITLE19=Hell Hound on My Trail
TTITLE20=Little Queen of Spades
TTITLE21=Malted Milk
TTITLE22=Drunken Hearted Man
TTITLE23=Me and the Devil Blues
TTITLE24=Stop Breakin' Down Blues
TTITLE25=Travelling Riverside Blues
TTITLE26=Honeymoon Blues
TTITLE27=Love in Vain Blues
TTITLE28=Milkcow Calf Blues
EXTD=
EXTT0=
EXTT1=
EXTT2=
EXTT3=
EXTT4=
EXTT5=
EXTT6=
EXTT7=
EXTT8=
EXTT9=
EXTT10=
EXTT11=
EXTT12=
EXTT13=
EXTT14=
EXTT15=
EXTT16=
EXTT17=
EXTT18=
EXTT19=
EXTT20=
EXTT21=
EXTT22=
EXTT23=
EXTT24=
EXTT25=
EXTT26=
EXTT27=
EXTT28=
PLAYORDER=
